# This file uses centimeters as units for non-parametric coordinates.

mtllib l33_schatz.mtl
v -0.400298 0.000000 0.308938
v 0.400298 0.000000 0.308938
v -0.400298 0.400298 0.308938
v 0.400298 0.400298 0.308938
v -0.400298 0.400298 -0.308938
v 0.400298 0.400298 -0.308938
v -0.400298 0.000000 -0.308938
v 0.400298 0.000000 -0.308938
v -0.400298 0.400298 -0.308939
v -0.400298 0.480371 -0.293818
v -0.400298 0.552606 -0.249937
v -0.400298 0.609932 -0.181590
v -0.400298 0.646737 -0.095467
v -0.400298 0.659420 0.000000
v -0.400298 0.646737 0.095467
v -0.400298 0.609932 0.181590
v -0.400298 0.552606 0.249937
v -0.400298 0.480371 0.293818
v -0.400298 0.400298 0.308939
v 0.400298 0.400298 -0.308939
v 0.400298 0.480371 -0.293818
v 0.400298 0.552606 -0.249937
v 0.400298 0.609932 -0.181590
v 0.400298 0.646737 -0.095467
v 0.400298 0.659420 0.000000
v 0.400298 0.646737 0.095467
v 0.400298 0.609932 0.181590
v 0.400298 0.552606 0.249937
v 0.400298 0.480371 0.293818
v 0.400298 0.400298 0.308939
v -0.400298 0.400298 0.000000
v 0.400298 0.400298 0.000000
vt 0.957086 0.007952
vt 0.499379 0.007952
vt 0.041673 0.007952
vt 0.499379 0.007952
vt 0.499379 0.465659
vt 0.957086 0.007952
vt 0.957086 0.465659
vt 0.499379 0.007952
vt 0.041673 0.007952
vt 0.499379 0.465659
vt 0.041673 0.465659
vt 0.957086 0.465659
vt 0.499380 0.465659
vt 0.041673 0.465659
vt 0.344666 0.490976
vt 0.418885 0.490976
vt 0.344666 0.990976
vt 0.418885 0.990976
vt 0.493104 0.490976
vt 0.493104 0.990976
vt 0.559510 0.490976
vt 0.559510 0.990976
vt 0.625916 0.490976
vt 0.629823 0.990976
vt 0.692323 0.490976
vt 0.692323 0.990976
vt 0.754823 0.490976
vt 0.754823 0.990976
vt 0.813416 0.490976
vt 0.817323 0.990976
vt 0.872010 0.490976
vt 0.872010 0.990976
vt 0.926698 0.490976
vt 0.930604 0.990976
vt 0.977479 0.490976
vt 0.981385 0.990976
vt 0.202368 0.529052
vt 0.273310 0.517816
vt 0.273310 0.738205
vt 0.138371 0.561660
vt 0.087582 0.612449
vt 0.054974 0.676447
vt 0.043738 0.747388
vt 0.054974 0.818330
vt 0.087582 0.882327
vt 0.138371 0.933116
vt 0.202368 0.965724
vt 0.273310 0.976960
vt 0.273310 0.976960
vt 0.202368 0.965724
vt 0.273310 0.738205
vt 0.138371 0.933116
vt 0.087582 0.882327
vt 0.054974 0.818330
vt 0.043738 0.747388
vt 0.054974 0.676447
vt 0.087582 0.612449
vt 0.138371 0.561661
vt 0.202368 0.529052
vt 0.273310 0.517816
vt 0.977479 0.490976
vt 0.930604 0.990976
vt 0.930604 0.990976
vt 0.926698 0.490976
vt 0.926698 0.490976
vt 0.872010 0.990976
vt 0.872010 0.990976
vt 0.872010 0.490976
vt 0.872010 0.490976
vt 0.817323 0.990976
vt 0.817323 0.990976
vt 0.813416 0.490976
vt 0.813416 0.490976
vt 0.754823 0.990976
vt 0.754823 0.990976
vt 0.754823 0.490976
vt 0.754823 0.490976
vt 0.692323 0.990976
vt 0.692323 0.990976
vt 0.692323 0.490976
vt 0.692323 0.490976
vt 0.629823 0.990976
vt 0.629823 0.990976
vt 0.625916 0.490976
vt 0.625916 0.490976
vt 0.559510 0.990976
vt 0.559510 0.990976
vt 0.559510 0.490976
vt 0.559510 0.490976
vt 0.493104 0.990976
vt 0.493104 0.990976
vt 0.493104 0.490976
vt 0.493104 0.490976
vt 0.418885 0.990976
vt 0.418885 0.990976
vt 0.418885 0.490976
vt 0.418885 0.490976
vt 0.344666 0.990976
vn 0.000000 0.000000 1.000000
vn 0.000000 0.000000 1.000000
vn 0.000000 0.000000 1.000000
vn 0.000000 0.000000 1.000000
vn 0.000000 0.000000 -1.000000
vn 0.000000 0.000000 -1.000000
vn 0.000000 0.000000 -1.000000
vn 0.000000 0.000000 -1.000000
vn 1.000000 0.000000 0.000000
vn 1.000000 0.000000 0.000000
vn 1.000000 0.000000 0.000000
vn 1.000000 0.000000 0.000000
vn -1.000000 0.000000 0.000000
vn -1.000000 0.000000 0.000000
vn -1.000000 0.000000 0.000000
vn -1.000000 0.000000 0.000000
vn 0.000000 0.185555 -0.982634
vn 0.000000 0.301069 -0.953602
vn 0.000000 0.185555 -0.982634
vn 0.000000 0.413894 -0.910325
vn 0.000000 0.608729 -0.793378
vn 0.000000 0.692045 -0.721855
vn 0.000000 0.825210 -0.564826
vn 0.000000 0.876827 -0.480805
vn 0.000000 0.951254 -0.308409
vn 0.000000 0.975366 -0.220593
vn 0.000000 0.999021 -0.044238
vn 0.000000 0.999021 0.044238
vn 0.000000 0.975366 0.220593
vn 0.000000 0.951254 0.308409
vn 0.000000 0.876827 0.480805
vn 0.000000 0.825209 0.564827
vn 0.000000 0.692044 0.721855
vn 0.000000 0.608729 0.793378
vn 0.000000 0.413893 0.910325
vn 0.000000 0.301069 0.953602
vn 0.000000 0.185555 0.982634
vn 0.000000 0.185555 0.982634
vn -1.000000 0.000000 0.000000
vn -1.000000 0.000000 0.000000
vn -1.000000 0.000000 0.000000
vn -1.000000 0.000000 0.000000
vn -1.000000 0.000000 0.000000
vn -1.000000 0.000000 0.000000
vn -1.000000 0.000000 0.000000
vn -1.000000 0.000000 0.000000
vn -1.000000 0.000000 0.000000
vn -1.000000 0.000000 0.000000
vn -1.000000 0.000000 0.000000
vn -1.000000 0.000000 0.000000
vn 1.000000 0.000000 0.000000
vn 1.000000 0.000000 0.000000
vn 1.000000 0.000000 0.000000
vn 1.000000 0.000000 0.000000
vn 1.000000 0.000000 0.000000
vn 1.000000 0.000000 0.000000
vn 1.000000 0.000000 0.000000
vn 1.000000 0.000000 0.000000
vn 1.000000 0.000000 0.000000
vn 1.000000 0.000000 0.000000
vn 1.000000 0.000000 0.000000
vn 1.000000 0.000000 0.000000
s 1
usemtl blinn2SG
f 1/9/1 2/2/2 3/11/3
f 3/11/3 2/2/2 4/13/4
s 2
f 5/3/5 6/4/6 7/14/7
f 7/14/7 6/4/6 8/5/8
s 3
f 2/2/9 8/6/10 4/13/11
f 4/13/11 8/6/10 6/7/12
s 4
f 7/8/13 1/1/14 5/10/15
f 5/10/15 1/1/14 3/12/16
s 5
f 9/15/17 10/97/18 20/98/19
f 20/17/19 10/16/18 21/94/20
f 10/96/18 11/93/21 21/18/20
f 21/95/20 11/19/21 22/90/22
f 11/92/21 12/89/23 22/20/22
f 22/91/22 12/21/23 23/86/24
f 12/88/23 13/85/25 23/22/24
f 23/87/24 13/23/25 24/82/26
f 13/84/25 14/81/27 24/24/26
f 24/83/26 14/25/27 25/78/28
f 14/80/27 15/77/29 25/26/28
f 25/79/28 15/27/29 26/74/30
f 15/76/29 16/73/31 26/28/30
f 26/75/30 16/29/31 27/70/32
f 16/72/31 17/69/33 27/30/32
f 27/71/32 17/31/33 28/66/34
f 17/68/33 18/65/35 28/32/34
f 28/67/34 18/33/35 29/62/36
f 18/64/35 19/35/37 29/34/36
f 29/63/36 19/61/37 30/36/38
s 6
f 10/37/39 9/38/40 31/39/41
f 11/40/42 10/37/39 31/39/41
f 12/41/43 11/40/42 31/39/41
f 13/42/44 12/41/43 31/39/41
f 14/43/45 13/42/44 31/39/41
f 15/44/46 14/43/45 31/39/41
f 16/45/47 15/44/46 31/39/41
f 17/46/48 16/45/47 31/39/41
f 18/47/49 17/46/48 31/39/41
f 19/48/50 18/47/49 31/39/41
s 7
f 20/49/51 21/50/52 32/51/53
f 21/50/52 22/52/54 32/51/53
f 22/52/54 23/53/55 32/51/53
f 23/53/55 24/54/56 32/51/53
f 24/54/56 25/55/57 32/51/53
f 25/55/57 26/56/58 32/51/53
f 26/56/58 27/57/59 32/51/53
f 27/57/59 28/58/60 32/51/53
f 28/58/60 29/59/61 32/51/53
f 29/59/61 30/60/62 32/51/53
