# This file uses centimeters as units for non-parametric coordinates.

mtllib l33_stone.mtl
v 0.217790 -0.000000 -0.317947
v 0.111879 -0.000000 -0.402342
v -0.005777 -0.000000 -0.450389
v -0.123370 -0.000000 -0.457550
v -0.229407 -0.000000 -0.423113
v -0.313618 0.000000 -0.350388
v -0.367922 0.000000 -0.246402
v -0.387159 -0.000000 -0.121247
v -0.369511 0.000000 0.012864
v -0.316603 0.000000 0.142744
v -0.233634 0.000000 0.255692
v -0.128463 0.000000 0.340504
v -0.011270 -0.000000 0.388812
v 0.106399 0.000000 0.395930
v 0.213010 0.000000 0.361170
v 0.298065 -0.000000 0.287970
v 0.353147 -0.000000 0.183546
v 0.372783 -0.000000 0.058165
v 0.355010 -0.000000 -0.075875
v 0.301581 -0.000000 -0.205462
v 0.051835 0.070432 -0.421237
v -0.174515 0.070432 -0.435181
v -0.336560 0.070432 -0.295168
v -0.373407 0.070432 -0.054115
v -0.271467 0.070432 0.196179
v -0.068861 0.070432 0.359648
v 0.157601 0.070432 0.373529
v 0.321145 0.070432 0.232672
v 0.366816 0.077143 -0.008312
v 0.255767 0.070432 -0.258515
v 0.049240 0.139129 -0.406556
v -0.168493 0.139129 -0.420107
v -0.324310 0.139129 -0.285410
v -0.359662 0.139129 -0.053369
v -0.261403 0.139129 0.187585
v -0.066358 0.139129 0.345018
v 0.151430 0.139129 0.358538
v 0.308610 0.139129 0.223074
v 0.350171 0.150484 -0.008997
v 0.245368 0.139129 -0.249732
v 0.045296 0.204401 -0.382662
v -0.158516 0.204401 -0.395455
v -0.304316 0.204401 -0.269364
v -0.337286 0.204401 -0.052059
v -0.245168 0.204401 0.173646
v -0.062498 0.204401 0.321172
v 0.141320 0.204401 0.333962
v 0.288297 0.204401 0.207208
v 0.324461 0.217214 -0.010240
v 0.228865 0.204401 -0.235642
v 0.040065 0.275937 -0.350647
v -0.145070 0.275937 -0.362426
v -0.277551 0.275937 -0.247811
v -0.307417 0.275937 -0.050220
v -0.223555 0.275937 0.155041
v -0.057428 0.275937 0.289248
v 0.127762 0.275937 0.300996
v 0.261211 0.275937 0.185836
v 0.291545 0.275937 -0.012019
v 0.206560 0.264639 -0.216532
v 0.033615 0.326388 -0.309520
v -0.127634 0.326388 -0.319876
v -0.243070 0.326388 -0.219988
v -0.269016 0.326388 -0.047777
v -0.195845 0.326388 0.131138
v -0.051032 0.326388 0.248151
v 0.110269 0.326388 0.258478
v 0.226398 0.326388 0.158200
v 0.252714 0.326388 -0.014219
v 0.179113 0.318362 -0.192936
v 0.017738 0.384050 -0.245979
v -0.104759 0.384050 -0.249945
v -0.190417 0.384050 -0.170247
v -0.206711 0.384050 -0.037216
v -0.147485 0.384050 0.098372
v -0.035235 0.384050 0.184655
v 0.087335 0.384050 0.188581
v 0.173325 0.384050 0.108695
v 0.189817 0.384050 -0.024447
v 0.107564 0.382815 -0.179307
v 0.009833 0.428708 -0.154224
v -0.061558 0.428708 -0.158887
v -0.112710 0.428708 -0.114612
v -0.124175 0.428708 -0.038257
v -0.091600 0.428708 0.041027
v -0.027373 0.428708 0.092924
v 0.044024 0.428708 0.097585
v 0.095309 0.428708 0.053233
v 0.106835 0.428708 -0.023155
v 0.060070 0.428237 -0.118743
v 0.000507 0.444688 -0.092331
v -0.035143 0.444688 -0.094653
v -0.060677 0.444688 -0.072551
v -0.066401 0.444688 -0.034435
v -0.050119 0.444688 0.005131
v -0.018053 0.444688 0.031036
v 0.017578 0.444688 0.033367
v 0.043145 0.444688 0.011247
v 0.048891 0.444688 -0.026882
v 0.032581 0.444688 -0.066432
v -0.008775 0.450231 -0.030647
vt 0.000000 0.500000
vt 0.050000 0.500000
vt 0.100000 0.500000
vt 0.150000 0.500000
vt 0.200000 0.500000
vt 0.250000 0.500000
vt 0.300000 0.500000
vt 0.350000 0.500000
vt 0.400000 0.500000
vt 0.450000 0.500000
vt 0.500000 0.500000
vt 0.550000 0.500000
vt 0.600000 0.500000
vt 0.650000 0.500000
vt 0.700000 0.500000
vt 0.750000 0.500000
vt 0.800000 0.500000
vt 0.850000 0.500000
vt 0.900000 0.500000
vt 0.950000 0.500000
vt 1.000000 0.500000
vt 0.000000 0.550000
vt 0.075000 0.550000
vt 0.175000 0.550000
vt 0.275000 0.550000
vt 0.375000 0.550000
vt 0.475000 0.550000
vt 0.575000 0.550000
vt 0.675000 0.550000
vt 0.775000 0.550000
vt 0.875000 0.550000
vt 0.975000 0.550000
vt 0.000000 0.600000
vt 0.075000 0.600000
vt 0.175000 0.600000
vt 0.275000 0.600000
vt 0.375000 0.600000
vt 0.475000 0.600000
vt 0.575000 0.600000
vt 0.675000 0.600000
vt 0.775000 0.600000
vt 0.875000 0.600000
vt 0.975000 0.600000
vt 0.000000 0.650000
vt 0.075000 0.650000
vt 0.175000 0.650000
vt 0.275000 0.650000
vt 0.375000 0.650000
vt 0.475000 0.650000
vt 0.575000 0.650000
vt 0.675000 0.650000
vt 0.775000 0.650000
vt 0.875000 0.650000
vt 0.975000 0.650000
vt 0.000000 0.700000
vt 0.075000 0.700000
vt 0.175000 0.700000
vt 0.275000 0.700000
vt 0.375000 0.700000
vt 0.475000 0.700000
vt 0.575000 0.700000
vt 0.675000 0.700000
vt 0.775000 0.700000
vt 0.875000 0.700000
vt 0.975000 0.700000
vt 0.000000 0.750000
vt 0.075000 0.750000
vt 0.175000 0.750000
vt 0.275000 0.750000
vt 0.375000 0.750000
vt 0.475000 0.750000
vt 0.575000 0.750000
vt 0.675000 0.750000
vt 0.775000 0.750000
vt 0.875000 0.750000
vt 0.975000 0.750000
vt 0.000000 0.825000
vt 0.075000 0.825000
vt 0.175000 0.825000
vt 0.275000 0.825000
vt 0.375000 0.825000
vt 0.475000 0.825000
vt 0.575000 0.825000
vt 0.675000 0.825000
vt 0.775000 0.825000
vt 0.875000 0.825000
vt 0.975000 0.825000
vt 0.000000 0.900000
vt 0.075000 0.900000
vt 0.175000 0.900000
vt 0.275000 0.900000
vt 0.375000 0.900000
vt 0.475000 0.900000
vt 0.575000 0.900000
vt 0.675000 0.900000
vt 0.775000 0.900000
vt 0.875000 0.900000
vt 0.975000 0.900000
vt 0.000000 0.950000
vt 0.075000 0.950000
vt 0.175000 0.950000
vt 0.275000 0.950000
vt 0.375000 0.950000
vt 0.475000 0.950000
vt 0.575000 0.950000
vt 0.675000 0.950000
vt 0.775000 0.950000
vt 0.875000 0.950000
vt 0.975000 0.950000
vt 0.025000 1.000000
vt 0.125000 1.000000
vt 0.225000 1.000000
vt 0.325000 1.000000
vt 0.425000 1.000000
vt 0.525000 1.000000
vt 0.625000 1.000000
vt 0.725000 1.000000
vt 0.825000 1.000000
vt 0.925000 1.000000
vn 0.493411 0.193113 -0.848088
vn 0.350850 0.243633 -0.904183
vn 0.671230 0.231489 -0.704175
vn 0.776071 0.214141 -0.593176
vn 0.167256 0.256487 -0.951966
vn -0.128684 0.214090 -0.968300
vn -0.303855 0.289000 -0.907828
vn -0.473100 0.222672 -0.852404
vn -0.719348 0.267927 -0.640901
vn -0.847447 0.256124 -0.465009
vn -0.929746 0.199902 -0.309212
vn -0.969539 0.239089 -0.053197
vn -0.966764 0.228006 0.115673
vn -0.950842 0.184167 0.248961
vn -0.868964 0.221043 0.442766
vn -0.786019 0.205282 0.583125
vn -0.675878 0.228669 0.700642
vn -0.497480 0.190977 0.846192
vn -0.353513 0.242283 0.903509
vn -0.168156 0.255867 0.951975
vn 0.129472 0.213839 0.968251
vn 0.303509 0.288947 0.907960
vn 0.472915 0.222447 0.852566
vn 0.717536 0.268951 0.642501
vn 0.844087 0.244988 0.476967
vn 0.927866 0.203739 0.312339
vn 0.981657 0.177732 0.068998
vn 0.976427 0.182125 -0.115849
vn 0.938608 0.162420 -0.304361
vn 0.853055 0.188316 -0.486656
vn 0.348852 0.277304 -0.895212
vn 0.764764 0.257141 -0.590774
vn -0.306295 0.280074 -0.909803
vn -0.839048 0.292492 -0.458744
vn -0.959032 0.258459 0.116002
vn -0.772729 0.270351 0.574283
vn -0.351239 0.275608 0.894802
vn 0.305640 0.279783 0.910113
vn 0.827355 0.298217 0.475973
vn 0.946495 0.302938 -0.111248
vn 0.337889 0.374286 -0.863563
vn 0.737454 0.370065 -0.564990
vn -0.291603 0.400284 -0.868758
vn -0.806477 0.395211 -0.439776
vn -0.929549 0.350918 0.113117
vn -0.751989 0.349878 0.558657
vn -0.340036 0.372697 0.863408
vn 0.290939 0.400070 0.869079
vn 0.793922 0.402436 0.455777
vn 0.899647 0.422118 -0.111587
vn 0.323989 0.532598 -0.781902
vn 0.702724 0.515666 -0.490171
vn -0.269288 0.527013 -0.806065
vn -0.739336 0.547557 -0.391872
vn -0.861490 0.495437 0.111249
vn -0.687139 0.517565 0.509869
vn -0.320489 0.521265 0.790929
vn 0.268750 0.526784 0.806395
vn 0.723900 0.565406 0.395329
vn 0.825515 0.560124 -0.069177
vn 0.309580 0.687083 -0.657326
vn 0.623767 0.644808 -0.441744
vn -0.221591 0.713625 -0.664557
vn -0.623366 0.712822 -0.321402
vn -0.742684 0.661847 0.101877
vn -0.592014 0.671398 0.445807
vn -0.270650 0.691568 0.669689
vn 0.221203 0.713580 0.664735
vn 0.621198 0.714490 0.321895
vn 0.741582 0.660546 -0.117192
vn 0.443476 0.803335 -0.397469
vn 0.161372 0.844404 -0.510823
vn -0.182152 0.835346 -0.518669
vn -0.483344 0.844966 -0.228935
vn -0.579900 0.809218 0.094243
vn -0.448993 0.824305 0.344858
vn -0.213352 0.824495 0.524108
vn 0.181920 0.835322 0.518790
vn 0.481610 0.845892 0.229171
vn 0.568850 0.814494 -0.114056
vn 0.140385 0.933091 -0.331109
vn 0.286552 0.924769 -0.250379
vn -0.112630 0.937691 -0.328710
vn -0.304049 0.941690 -0.144131
vn -0.374856 0.925075 0.060984
vn -0.284166 0.935672 0.209206
vn -0.143612 0.934581 0.325475
vn 0.112525 0.937680 0.328777
vn 0.303246 0.941937 0.144209
vn 0.363175 0.927660 -0.086897
vn 0.085291 0.981543 -0.171167
vn 0.179799 0.976509 -0.118751
vn -0.054568 0.984229 -0.168270
vn -0.167330 0.983591 -0.067451
vn -0.201225 0.978634 0.042239
vn -0.154018 0.981492 0.113810
vn -0.089124 0.980973 0.172477
vn 0.054512 0.984230 0.168282
vn 0.167030 0.983640 0.067482
vn 0.182786 0.982842 -0.024697
vn -0.000022 1.000000 0.000000
s 1
usemtl initialShadingGroup
f 2/2/1 21/23/2 1/1/3
f 1/1/3 21/23/2 30/22/4
f 2/2/1 3/3/5 21/23/2
f 4/4/6 22/24/7 3/3/5
f 3/3/5 22/24/7 21/23/2
f 4/4/6 5/5/8 22/24/7
f 5/5/8 6/6/9 22/24/7
f 22/24/7 6/6/9 23/25/10
f 6/6/9 7/7/11 23/25/10
f 7/7/11 8/8/12 23/25/10
f 23/25/10 8/8/12 24/26/13
f 8/8/12 9/9/14 24/26/13
f 9/9/14 10/10/15 24/26/13
f 24/26/13 10/10/15 25/27/16
f 10/10/15 11/11/17 25/27/16
f 12/12/18 26/28/19 11/11/17
f 11/11/17 26/28/19 25/27/16
f 12/12/18 13/13/20 26/28/19
f 14/14/21 27/29/22 13/13/20
f 13/13/20 27/29/22 26/28/19
f 14/14/21 15/15/23 27/29/22
f 15/15/23 16/16/24 27/29/22
f 27/29/22 16/16/24 28/30/25
f 16/16/24 17/17/26 28/30/25
f 17/17/26 18/18/27 28/30/25
f 28/30/25 18/18/27 29/31/28
f 18/18/27 19/19/29 29/31/28
f 20/20/30 30/32/4 19/19/29
f 19/19/29 30/32/4 29/31/28
f 20/20/30 1/21/3 30/32/4
f 21/23/2 31/34/31 30/22/4
f 30/22/4 31/34/31 40/33/32
f 22/24/7 32/35/33 21/23/2
f 21/23/2 32/35/33 31/34/31
f 22/24/7 23/25/10 32/35/33
f 32/35/33 23/25/10 33/36/34
f 23/25/10 24/26/13 33/36/34
f 33/36/34 24/26/13 34/37/35
f 24/26/13 25/27/16 34/37/35
f 34/37/35 25/27/16 35/38/36
f 26/28/19 36/39/37 25/27/16
f 25/27/16 36/39/37 35/38/36
f 27/29/22 37/40/38 26/28/19
f 26/28/19 37/40/38 36/39/37
f 27/29/22 28/30/25 37/40/38
f 37/40/38 28/30/25 38/41/39
f 28/30/25 29/31/28 38/41/39
f 38/41/39 29/31/28 39/42/40
f 30/32/4 40/43/32 29/31/28
f 29/31/28 40/43/32 39/42/40
f 31/34/31 41/45/41 40/33/32
f 40/33/32 41/45/41 50/44/42
f 32/35/33 42/46/43 31/34/31
f 31/34/31 42/46/43 41/45/41
f 32/35/33 33/36/34 42/46/43
f 42/46/43 33/36/34 43/47/44
f 33/36/34 34/37/35 43/47/44
f 43/47/44 34/37/35 44/48/45
f 34/37/35 35/38/36 44/48/45
f 44/48/45 35/38/36 45/49/46
f 36/39/37 46/50/47 35/38/36
f 35/38/36 46/50/47 45/49/46
f 37/40/38 47/51/48 36/39/37
f 36/39/37 47/51/48 46/50/47
f 37/40/38 38/41/39 47/51/48
f 47/51/48 38/41/39 48/52/49
f 38/41/39 39/42/40 48/52/49
f 48/52/49 39/42/40 49/53/50
f 40/43/32 50/54/42 39/42/40
f 39/42/40 50/54/42 49/53/50
f 41/45/41 51/56/51 50/44/42
f 50/44/42 51/56/51 60/55/52
f 42/46/43 52/57/53 41/45/41
f 41/45/41 52/57/53 51/56/51
f 42/46/43 43/47/44 52/57/53
f 52/57/53 43/47/44 53/58/54
f 43/47/44 44/48/45 53/58/54
f 53/58/54 44/48/45 54/59/55
f 44/48/45 45/49/46 54/59/55
f 54/59/55 45/49/46 55/60/56
f 46/50/47 56/61/57 45/49/46
f 45/49/46 56/61/57 55/60/56
f 47/51/48 57/62/58 46/50/47
f 46/50/47 57/62/58 56/61/57
f 47/51/48 48/52/49 57/62/58
f 57/62/58 48/52/49 58/63/59
f 48/52/49 49/53/50 58/63/59
f 58/63/59 49/53/50 59/64/60
f 50/54/42 60/65/52 49/53/50
f 49/53/50 60/65/52 59/64/60
f 51/56/51 61/67/61 60/55/52
f 60/55/52 61/67/61 70/66/62
f 52/57/53 62/68/63 51/56/51
f 51/56/51 62/68/63 61/67/61
f 52/57/53 53/58/54 62/68/63
f 62/68/63 53/58/54 63/69/64
f 53/58/54 54/59/55 63/69/64
f 63/69/64 54/59/55 64/70/65
f 54/59/55 55/60/56 64/70/65
f 64/70/65 55/60/56 65/71/66
f 56/61/57 66/72/67 55/60/56
f 55/60/56 66/72/67 65/71/66
f 57/62/58 67/73/68 56/61/57
f 56/61/57 67/73/68 66/72/67
f 57/62/58 58/63/59 67/73/68
f 67/73/68 58/63/59 68/74/69
f 58/63/59 59/64/60 68/74/69
f 68/74/69 59/64/60 69/75/70
f 59/64/60 60/65/52 69/75/70
f 69/75/70 60/65/52 70/76/62
f 70/66/62 61/67/61 80/77/71
f 80/77/71 61/67/61 71/78/72
f 62/68/63 72/79/73 61/67/61
f 61/67/61 72/79/73 71/78/72
f 62/68/63 63/69/64 72/79/73
f 72/79/73 63/69/64 73/80/74
f 63/69/64 64/70/65 73/80/74
f 73/80/74 64/70/65 74/81/75
f 64/70/65 65/71/66 74/81/75
f 74/81/75 65/71/66 75/82/76
f 66/72/67 76/83/77 65/71/66
f 65/71/66 76/83/77 75/82/76
f 67/73/68 77/84/78 66/72/67
f 66/72/67 77/84/78 76/83/77
f 67/73/68 68/74/69 77/84/78
f 77/84/78 68/74/69 78/85/79
f 68/74/69 69/75/70 78/85/79
f 78/85/79 69/75/70 79/86/80
f 69/75/70 70/76/62 79/86/80
f 79/86/80 70/76/62 80/87/71
f 71/78/72 81/89/81 80/77/71
f 80/77/71 81/89/81 90/88/82
f 72/79/73 82/90/83 71/78/72
f 71/78/72 82/90/83 81/89/81
f 72/79/73 73/80/74 82/90/83
f 82/90/83 73/80/74 83/91/84
f 73/80/74 74/81/75 83/91/84
f 83/91/84 74/81/75 84/92/85
f 74/81/75 75/82/76 84/92/85
f 84/92/85 75/82/76 85/93/86
f 76/83/77 86/94/87 75/82/76
f 75/82/76 86/94/87 85/93/86
f 77/84/78 87/95/88 76/83/77
f 76/83/77 87/95/88 86/94/87
f 77/84/78 78/85/79 87/95/88
f 87/95/88 78/85/79 88/96/89
f 78/85/79 79/86/80 88/96/89
f 88/96/89 79/86/80 89/97/90
f 79/86/80 80/87/71 89/97/90
f 89/97/90 80/87/71 90/98/82
f 81/89/81 91/100/91 90/88/82
f 90/88/82 91/100/91 100/99/92
f 82/90/83 92/101/93 81/89/81
f 81/89/81 92/101/93 91/100/91
f 82/90/83 83/91/84 92/101/93
f 92/101/93 83/91/84 93/102/94
f 83/91/84 84/92/85 93/102/94
f 93/102/94 84/92/85 94/103/95
f 84/92/85 85/93/86 94/103/95
f 94/103/95 85/93/86 95/104/96
f 86/94/87 96/105/97 85/93/86
f 85/93/86 96/105/97 95/104/96
f 87/95/88 97/106/98 86/94/87
f 86/94/87 97/106/98 96/105/97
f 87/95/88 88/96/89 97/106/98
f 97/106/98 88/96/89 98/107/99
f 88/96/89 89/97/90 98/107/99
f 98/107/99 89/97/90 99/108/100
f 90/98/82 100/109/92 89/97/90
f 89/97/90 100/109/92 99/108/100
f 100/99/92 91/100/91 101/110/101
f 91/100/91 92/101/93 101/111/101
f 92/101/93 93/102/94 101/112/101
f 93/102/94 94/103/95 101/113/101
f 94/103/95 95/104/96 101/114/101
f 95/104/96 96/105/97 101/115/101
f 96/105/97 97/106/98 101/116/101
f 97/106/98 98/107/99 101/117/101
f 98/107/99 99/108/100 101/118/101
f 99/108/100 100/109/92 101/119/101
