# This file uses centimeters as units for non-parametric coordinates.

mtllib l33_stone.mtl
v -0.073145 0.031674 -0.361352
v -0.205340 0.031674 -0.301456
v -0.297136 0.031674 -0.244613
v -0.360806 0.031674 -0.167388
v -0.390119 0.031674 -0.077319
v -0.382218 0.031674 0.016879
v -0.338683 0.044266 0.088975
v -0.249893 0.039871 0.113541
v -0.148922 0.039871 0.168416
v -0.044624 0.039289 0.209494
v 0.074439 0.039289 0.208910
v 0.185260 0.039289 0.179014
v 0.277005 0.039289 0.122620
v 0.340454 0.031674 0.101125
v 0.369832 0.031674 0.010501
v 0.362025 0.031674 -0.084515
v 0.300399 0.031674 -0.150616
v 0.205086 0.031674 -0.200660
v 0.125390 0.031674 -0.284695
v 0.046011 0.031674 -0.362731
v -0.248322 0.091511 -0.269637
v -0.370987 0.091511 -0.121068
v -0.355735 0.091511 0.060232
v -0.196893 0.099707 0.137630
v 0.014643 0.099126 0.205175
v 0.228193 0.099126 0.147623
v 0.350641 0.091511 0.054750
v 0.318168 0.091511 -0.104083
v 0.156425 0.097212 -0.229771
v -0.013333 0.066776 -0.357755
v -0.239529 0.125139 -0.260519
v -0.357620 0.149874 -0.117675
v -0.342909 0.149874 0.056689
v -0.189514 0.158071 0.128558
v 0.013766 0.157489 0.193966
v 0.219390 0.157489 0.138594
v 0.337258 0.149874 0.051501
v 0.305310 0.149874 -0.100264
v 0.147638 0.134786 -0.218676
v -0.012494 0.125139 -0.346221
v -0.225081 0.180592 -0.245872
v -0.335697 0.180592 -0.112214
v -0.321895 0.205327 0.050967
v -0.177434 0.213524 0.113836
v 0.012299 0.212942 0.175846
v 0.204933 0.212942 0.124028
v 0.315319 0.205327 0.046170
v 0.284260 0.180592 -0.094233
v 0.133940 0.191478 -0.201631
v -0.011056 0.180592 -0.327842
v -0.184406 0.241367 -0.255565
v -0.306283 0.241367 -0.104953
v -0.293713 0.266102 0.043343
v -0.161248 0.274299 0.094231
v 0.010312 0.273717 0.151699
v 0.185529 0.273717 0.104595
v 0.285893 0.266102 0.039017
v 0.256042 0.241367 -0.086299
v 0.116272 0.241367 -0.179901
v -0.009069 0.231769 -0.302968
v -0.159368 0.284229 -0.230586
v -0.268333 0.284229 -0.095675
v -0.257368 0.284229 0.033549
v -0.140385 0.292426 0.069065
v 0.007731 0.291844 0.120717
v 0.160485 0.291844 0.079668
v 0.247937 0.284229 0.029795
v 0.237049 0.284229 -0.100102
v 0.095361 0.284229 -0.154318
v -0.006566 0.277410 -0.272319
v -0.144928 0.333217 -0.158649
v -0.208853 0.333217 -0.076457
v -0.196883 0.333217 0.022220
v -0.102229 0.333799 0.087333
v 0.009376 0.340832 0.071116
v 0.124516 0.333217 0.092896
v 0.188450 0.333217 0.010633
v 0.176517 0.333217 -0.088365
v 0.056909 0.333217 -0.116208
v -0.032948 0.332168 -0.216345
v -0.085827 0.371157 -0.107376
v -0.124699 0.371157 -0.060649
v -0.119830 0.371157 -0.003381
v -0.073091 0.371157 0.042644
v -0.002338 0.371157 0.059870
v 0.065411 0.371157 0.041665
v 0.104284 0.371157 -0.005067
v 0.099430 0.371157 -0.062466
v 0.052698 0.371157 -0.108549
v -0.036349 0.370757 -0.124171
v -0.047958 0.384734 -0.070046
v -0.067363 0.384734 -0.046710
v -0.064933 0.384734 -0.018122
v -0.041601 0.384734 0.004854
v -0.006279 0.384734 0.013433
v 0.027541 0.384734 0.004341
v 0.046945 0.384734 -0.018978
v 0.044518 0.384734 -0.047597
v 0.021189 0.384734 -0.070595
v -0.014136 0.384734 -0.079147
v -0.010209 0.389443 -0.032851
vt 0.000000 0.500000
vt 0.050000 0.500000
vt 0.100000 0.500000
vt 0.150000 0.500000
vt 0.200000 0.500000
vt 0.250000 0.500000
vt 0.300000 0.500000
vt 0.350000 0.500000
vt 0.400000 0.500000
vt 0.450000 0.500000
vt 0.500000 0.500000
vt 0.550000 0.500000
vt 0.600000 0.500000
vt 0.650000 0.500000
vt 0.700000 0.500000
vt 0.750000 0.500000
vt 0.800000 0.500000
vt 0.850000 0.500000
vt 0.900000 0.500000
vt 0.950000 0.500000
vt 1.000000 0.500000
vt 0.000000 0.550000
vt 0.075000 0.550000
vt 0.175000 0.550000
vt 0.275000 0.550000
vt 0.375000 0.550000
vt 0.475000 0.550000
vt 0.575000 0.550000
vt 0.675000 0.550000
vt 0.775000 0.550000
vt 0.875000 0.550000
vt 0.975000 0.550000
vt 0.000000 0.600000
vt 0.075000 0.600000
vt 0.175000 0.600000
vt 0.275000 0.600000
vt 0.375000 0.600000
vt 0.475000 0.600000
vt 0.575000 0.600000
vt 0.675000 0.600000
vt 0.775000 0.600000
vt 0.875000 0.600000
vt 0.975000 0.600000
vt 0.000000 0.650000
vt 0.075000 0.650000
vt 0.175000 0.650000
vt 0.275000 0.650000
vt 0.375000 0.650000
vt 0.475000 0.650000
vt 0.575000 0.650000
vt 0.675000 0.650000
vt 0.775000 0.650000
vt 0.875000 0.650000
vt 0.975000 0.650000
vt 0.000000 0.700000
vt 0.075000 0.700000
vt 0.175000 0.700000
vt 0.275000 0.700000
vt 0.375000 0.700000
vt 0.475000 0.700000
vt 0.575000 0.700000
vt 0.675000 0.700000
vt 0.775000 0.700000
vt 0.875000 0.700000
vt 0.975000 0.700000
vt 0.000000 0.750000
vt 0.075000 0.750000
vt 0.175000 0.750000
vt 0.275000 0.750000
vt 0.375000 0.750000
vt 0.475000 0.750000
vt 0.575000 0.750000
vt 0.675000 0.750000
vt 0.775000 0.750000
vt 0.875000 0.750000
vt 0.975000 0.750000
vt 0.000000 0.825000
vt 0.075000 0.825000
vt 0.175000 0.825000
vt 0.275000 0.825000
vt 0.375000 0.825000
vt 0.475000 0.825000
vt 0.575000 0.825000
vt 0.675000 0.825000
vt 0.775000 0.825000
vt 0.875000 0.825000
vt 0.975000 0.825000
vt 0.000000 0.900000
vt 0.075000 0.900000
vt 0.175000 0.900000
vt 0.275000 0.900000
vt 0.375000 0.900000
vt 0.475000 0.900000
vt 0.575000 0.900000
vt 0.675000 0.900000
vt 0.775000 0.900000
vt 0.875000 0.900000
vt 0.975000 0.900000
vt 0.000000 0.950000
vt 0.075000 0.950000
vt 0.175000 0.950000
vt 0.275000 0.950000
vt 0.375000 0.950000
vt 0.475000 0.950000
vt 0.575000 0.950000
vt 0.675000 0.950000
vt 0.775000 0.950000
vt 0.875000 0.950000
vt 0.975000 0.950000
vt 0.025000 1.000000
vt 0.125000 1.000000
vt 0.225000 1.000000
vt 0.325000 1.000000
vt 0.425000 1.000000
vt 0.525000 1.000000
vt 0.625000 1.000000
vt 0.725000 1.000000
vt 0.825000 1.000000
vt 0.925000 1.000000
vn -0.467002 0.129674 -0.874697
vn -0.541515 0.295890 -0.786899
vn -0.230502 0.282400 -0.931192
vn 0.096766 0.402005 -0.910510
vn -0.671610 0.256488 -0.695093
vn -0.858852 0.214093 -0.465336
vn -0.912952 0.289001 -0.288094
vn -0.967650 0.222674 -0.118613
vn -0.940547 0.247444 0.232685
vn -0.794217 0.234135 0.560714
vn -0.593730 0.250858 0.764562
vn -0.387295 0.186357 0.902925
vn -0.391630 0.165497 0.905117
vn -0.419361 0.126325 0.898987
vn -0.217369 0.202801 0.954789
vn -0.017837 0.214906 0.976472
vn 0.169235 0.228670 0.958681
vn 0.391866 0.190979 0.899982
vn 0.446746 0.207078 0.870366
vn 0.498202 0.267536 0.824754
vn 0.715377 0.347866 0.605991
vn 0.863925 0.345826 0.366112
vn 0.967672 0.222449 0.118857
vn 0.853235 0.418135 -0.311696
vn 0.777005 0.315081 -0.544966
vn 0.562107 0.397228 -0.725428
vn 0.588164 0.278033 -0.759448
vn 0.593253 0.255624 -0.763353
vn 0.572765 0.494979 -0.653403
vn 0.239783 0.521461 -0.818891
vn -0.516654 0.355385 -0.778954
vn 0.136438 0.293497 -0.946173
vn -0.875785 0.383108 -0.293647
vn -0.771115 0.334195 0.541937
vn -0.356504 0.237416 0.903625
vn -0.024017 0.272208 0.961939
vn 0.422178 0.260438 0.868296
vn 0.897070 0.286548 0.336387
vn 0.762056 0.385294 -0.520403
vn 0.561712 0.358585 -0.745584
vn -0.548608 0.321189 -0.771924
vn 0.168325 0.332118 -0.928097
vn -0.830955 0.471129 -0.295890
vn -0.761819 0.398973 0.510345
vn -0.336970 0.323110 0.884336
vn -0.026217 0.351992 0.935636
vn 0.401000 0.352815 0.845411
vn 0.836947 0.456533 0.301824
vn 0.716671 0.453942 -0.529453
vn 0.568722 0.398492 -0.719555
vn -0.472342 0.487036 -0.734635
vn 0.287826 0.530771 -0.797144
vn -0.802261 0.519154 -0.294714
vn -0.599353 0.669715 0.438471
vn -0.273182 0.633874 0.723585
vn -0.022272 0.738689 0.673678
vn 0.310170 0.668619 0.675828
vn 0.720379 0.660318 0.212211
vn 0.706385 0.455848 -0.541500
vn 0.509402 0.447772 -0.734853
vn -0.359082 0.704345 -0.612339
vn 0.291011 0.673634 -0.679360
vn -0.611569 0.756752 -0.230891
vn -0.435478 0.829172 0.350476
vn -0.316976 0.585900 0.745820
vn -0.026575 0.562525 0.826353
vn 0.354726 0.682171 0.639385
vn 0.555142 0.814311 0.169455
vn 0.640562 0.587519 -0.494471
vn 0.421681 0.610006 -0.670878
vn 0.087043 0.820126 -0.565523
vn -0.338029 0.860408 -0.381359
vn -0.525860 0.836260 -0.155373
vn -0.484999 0.773320 0.408353
vn -0.280266 0.603377 0.746584
vn -0.007569 0.623502 0.781785
vn 0.288364 0.697106 0.656422
vn 0.558567 0.800025 0.219003
vn 0.376696 0.827853 -0.415643
vn 0.484016 0.590422 -0.645857
vn -0.190002 0.940965 -0.280151
vn -0.032643 0.945048 -0.325299
vn -0.332100 0.937691 -0.102204
vn -0.304037 0.934301 0.186126
vn -0.187188 0.853868 0.485665
vn 0.002974 0.837904 0.545810
vn 0.170480 0.887800 0.427490
vn 0.332093 0.937680 0.102328
vn 0.356901 0.885258 -0.298227
vn 0.319089 0.839389 -0.440010
vn -0.088287 0.981543 -0.169641
vn 0.009685 0.976509 -0.215257
vn -0.168190 0.984229 -0.054817
vn -0.152956 0.983591 0.095674
vn -0.084169 0.978634 0.187594
vn 0.001479 0.981492 0.191499
vn 0.087092 0.980973 0.173512
vn 0.168166 0.984230 0.054869
vn 0.152804 0.983640 -0.095414
vn 0.087513 0.982842 -0.162364
vn -0.000013 1.000000 0.000018
s 1
usemtl initialShadingGroup
f 2/2/1 21/23/2 1/1/3
f 1/1/3 21/23/2 30/22/4
f 2/2/1 3/3/5 21/23/2
f 4/4/6 22/24/7 3/3/5
f 3/3/5 22/24/7 21/23/2
f 4/4/6 5/5/8 22/24/7
f 5/5/8 6/6/9 22/24/7
f 22/24/7 6/6/9 23/25/10
f 6/6/9 7/7/11 23/25/10
f 7/7/11 8/8/12 23/25/10
f 23/25/10 8/8/12 24/26/13
f 8/8/12 9/9/14 24/26/13
f 9/9/14 10/10/15 24/26/13
f 24/26/13 10/10/15 25/27/16
f 10/10/15 11/11/17 25/27/16
f 12/12/18 26/28/19 11/11/17
f 11/11/17 26/28/19 25/27/16
f 12/12/18 13/13/20 26/28/19
f 14/14/21 27/29/22 13/13/20
f 13/13/20 27/29/22 26/28/19
f 14/14/21 15/15/23 27/29/22
f 15/15/23 16/16/24 27/29/22
f 27/29/22 16/16/24 28/30/25
f 16/16/24 17/17/26 28/30/25
f 17/17/26 18/18/27 28/30/25
f 28/30/25 18/18/27 29/31/28
f 18/18/27 19/19/29 29/31/28
f 20/20/30 30/32/4 19/19/29
f 19/19/29 30/32/4 29/31/28
f 20/20/30 1/21/3 30/32/4
f 21/23/2 31/34/31 30/22/4
f 30/22/4 31/34/31 40/33/32
f 22/24/7 32/35/33 21/23/2
f 21/23/2 32/35/33 31/34/31
f 22/24/7 23/25/10 32/35/33
f 32/35/33 23/25/10 33/36/34
f 23/25/10 24/26/13 33/36/34
f 33/36/34 24/26/13 34/37/35
f 24/26/13 25/27/16 34/37/35
f 34/37/35 25/27/16 35/38/36
f 26/28/19 36/39/37 25/27/16
f 25/27/16 36/39/37 35/38/36
f 27/29/22 37/40/38 26/28/19
f 26/28/19 37/40/38 36/39/37
f 27/29/22 28/30/25 37/40/38
f 37/40/38 28/30/25 38/41/39
f 28/30/25 29/31/28 38/41/39
f 38/41/39 29/31/28 39/42/40
f 30/32/4 40/43/32 29/31/28
f 29/31/28 40/43/32 39/42/40
f 31/34/31 41/45/41 40/33/32
f 40/33/32 41/45/41 50/44/42
f 32/35/33 42/46/43 31/34/31
f 31/34/31 42/46/43 41/45/41
f 32/35/33 33/36/34 42/46/43
f 42/46/43 33/36/34 43/47/44
f 33/36/34 34/37/35 43/47/44
f 43/47/44 34/37/35 44/48/45
f 34/37/35 35/38/36 44/48/45
f 44/48/45 35/38/36 45/49/46
f 36/39/37 46/50/47 35/38/36
f 35/38/36 46/50/47 45/49/46
f 37/40/38 47/51/48 36/39/37
f 36/39/37 47/51/48 46/50/47
f 37/40/38 38/41/39 47/51/48
f 47/51/48 38/41/39 48/52/49
f 38/41/39 39/42/40 48/52/49
f 48/52/49 39/42/40 49/53/50
f 40/43/32 50/54/42 39/42/40
f 39/42/40 50/54/42 49/53/50
f 41/45/41 51/56/51 50/44/42
f 50/44/42 51/56/51 60/55/52
f 42/46/43 52/57/53 41/45/41
f 41/45/41 52/57/53 51/56/51
f 42/46/43 43/47/44 52/57/53
f 52/57/53 43/47/44 53/58/54
f 43/47/44 44/48/45 53/58/54
f 53/58/54 44/48/45 54/59/55
f 44/48/45 45/49/46 54/59/55
f 54/59/55 45/49/46 55/60/56
f 46/50/47 56/61/57 45/49/46
f 45/49/46 56/61/57 55/60/56
f 47/51/48 57/62/58 46/50/47
f 46/50/47 57/62/58 56/61/57
f 47/51/48 48/52/49 57/62/58
f 57/62/58 48/52/49 58/63/59
f 48/52/49 49/53/50 58/63/59
f 58/63/59 49/53/50 59/64/60
f 50/54/42 60/65/52 49/53/50
f 49/53/50 60/65/52 59/64/60
f 51/56/51 61/67/61 60/55/52
f 60/55/52 61/67/61 70/66/62
f 52/57/53 62/68/63 51/56/51
f 51/56/51 62/68/63 61/67/61
f 52/57/53 53/58/54 62/68/63
f 62/68/63 53/58/54 63/69/64
f 53/58/54 54/59/55 63/69/64
f 63/69/64 54/59/55 64/70/65
f 54/59/55 55/60/56 64/70/65
f 64/70/65 55/60/56 65/71/66
f 56/61/57 66/72/67 55/60/56
f 55/60/56 66/72/67 65/71/66
f 57/62/58 67/73/68 56/61/57
f 56/61/57 67/73/68 66/72/67
f 57/62/58 58/63/59 67/73/68
f 67/73/68 58/63/59 68/74/69
f 58/63/59 59/64/60 68/74/69
f 68/74/69 59/64/60 69/75/70
f 59/64/60 60/65/52 69/75/70
f 69/75/70 60/65/52 70/76/62
f 70/66/62 61/67/61 80/77/71
f 80/77/71 61/67/61 71/78/72
f 62/68/63 72/79/73 61/67/61
f 61/67/61 72/79/73 71/78/72
f 62/68/63 63/69/64 72/79/73
f 72/79/73 63/69/64 73/80/74
f 63/69/64 64/70/65 73/80/74
f 73/80/74 64/70/65 74/81/75
f 64/70/65 65/71/66 74/81/75
f 74/81/75 65/71/66 75/82/76
f 66/72/67 76/83/77 65/71/66
f 65/71/66 76/83/77 75/82/76
f 67/73/68 77/84/78 66/72/67
f 66/72/67 77/84/78 76/83/77
f 67/73/68 68/74/69 77/84/78
f 77/84/78 68/74/69 78/85/79
f 68/74/69 69/75/70 78/85/79
f 78/85/79 69/75/70 79/86/80
f 69/75/70 70/76/62 79/86/80
f 79/86/80 70/76/62 80/87/71
f 71/78/72 81/89/81 80/77/71
f 80/77/71 81/89/81 90/88/82
f 72/79/73 82/90/83 71/78/72
f 71/78/72 82/90/83 81/89/81
f 72/79/73 73/80/74 82/90/83
f 82/90/83 73/80/74 83/91/84
f 73/80/74 74/81/75 83/91/84
f 83/91/84 74/81/75 84/92/85
f 74/81/75 75/82/76 84/92/85
f 84/92/85 75/82/76 85/93/86
f 76/83/77 86/94/87 75/82/76
f 75/82/76 86/94/87 85/93/86
f 77/84/78 87/95/88 76/83/77
f 76/83/77 87/95/88 86/94/87
f 77/84/78 78/85/79 87/95/88
f 87/95/88 78/85/79 88/96/89
f 78/85/79 79/86/80 88/96/89
f 88/96/89 79/86/80 89/97/90
f 79/86/80 80/87/71 89/97/90
f 89/97/90 80/87/71 90/98/82
f 81/89/81 91/100/91 90/88/82
f 90/88/82 91/100/91 100/99/92
f 82/90/83 92/101/93 81/89/81
f 81/89/81 92/101/93 91/100/91
f 82/90/83 83/91/84 92/101/93
f 92/101/93 83/91/84 93/102/94
f 83/91/84 84/92/85 93/102/94
f 93/102/94 84/92/85 94/103/95
f 84/92/85 85/93/86 94/103/95
f 94/103/95 85/93/86 95/104/96
f 86/94/87 96/105/97 85/93/86
f 85/93/86 96/105/97 95/104/96
f 87/95/88 97/106/98 86/94/87
f 86/94/87 97/106/98 96/105/97
f 87/95/88 88/96/89 97/106/98
f 97/106/98 88/96/89 98/107/99
f 88/96/89 89/97/90 98/107/99
f 98/107/99 89/97/90 99/108/100
f 90/98/82 100/109/92 89/97/90
f 89/97/90 100/109/92 99/108/100
f 100/99/92 91/100/91 101/110/101
f 91/100/91 92/101/93 101/111/101
f 92/101/93 93/102/94 101/112/101
f 93/102/94 94/103/95 101/113/101
f 94/103/95 95/104/96 101/114/101
f 95/104/96 96/105/97 101/115/101
f 96/105/97 97/106/98 101/116/101
f 97/106/98 98/107/99 101/117/101
f 98/107/99 99/108/100 101/118/101
f 99/108/100 100/109/92 101/119/101
