# This file uses centimeters as units for non-parametric coordinates.

mtllib l33_mauer_turm.mtl
v -0.500000 0.000000 0.500000
v 0.500000 0.000000 0.500000
v -0.500000 1.000000 0.500000
v 0.500000 1.000000 0.500000
v -0.500000 1.000000 -0.500000
v 0.500000 1.000000 -0.500000
v -0.500000 0.000000 -0.500000
v 0.500000 0.000000 -0.500000
v 0.500000 1.000000 0.166667
v 0.500000 1.000000 -0.166667
v -0.500000 1.000000 0.166667
v -0.500000 1.000000 -0.166667
v -0.166667 1.000000 -0.500000
v 0.166667 1.000000 -0.500000
v -0.166667 1.000000 0.500000
v 0.166667 1.000000 0.500000
v 0.166667 1.000000 0.166667
v 0.166667 1.000000 -0.166667
v -0.166667 1.000000 0.166667
v -0.166667 1.000000 -0.166667
v -0.166667 0.684512 -0.166667
v 0.166667 0.684512 -0.166667
v -0.166667 0.684512 0.166667
v 0.166667 0.684512 0.166667
vt 0.375000 0.000000
vt 0.625000 0.000000
vt 0.375000 0.250000
vt 0.625000 0.250000
vt 0.375000 0.500000
vt 0.625000 0.500000
vt 0.375000 0.750000
vt 0.625000 0.750000
vt 0.875000 0.000000
vt 0.875000 0.250000
vt 0.125000 0.000000
vt 0.125000 0.250000
vt 0.625000 0.333333
vt 0.708333 0.250000
vt 0.625000 0.416667
vt 0.791667 0.250000
vt 0.291667 0.250000
vt 0.375000 0.333333
vt 0.208333 0.250000
vt 0.375000 0.416667
vt 0.458333 0.500000
vt 0.541667 0.500000
vt 0.458333 0.250000
vt 0.541667 0.250000
vt 0.541667 0.333333
vt 0.541667 0.416667
vt 0.458333 0.333333
vt 0.458333 0.416667
vt 0.541667 0.416667
vt 0.458333 0.416667
vt 0.458333 0.333333
vt 0.541667 0.333333
vn 0.000000 0.000000 1.000000
vn 0.000000 0.000000 1.000000
vn 0.000000 0.000000 1.000000
vn 0.000000 0.000000 1.000000
vn 0.000000 0.000000 1.000000
vn 0.000000 0.000000 1.000000
vn 0.000000 1.000000 0.000000
vn 0.000000 1.000000 0.000000
vn 0.000000 1.000000 0.000000
vn 0.000000 1.000000 0.000000
vn 0.000000 0.000000 -1.000000
vn 0.000000 0.000000 -1.000000
vn 0.000000 0.000000 -1.000000
vn 0.000000 0.000000 -1.000000
vn 0.000000 0.000000 -1.000000
vn 0.000000 0.000000 -1.000000
vn 1.000000 0.000000 0.000000
vn 1.000000 0.000000 0.000000
vn 1.000000 0.000000 -0.000000
vn 1.000000 0.000000 -0.000000
vn 1.000000 0.000000 0.000000
vn 1.000000 0.000000 0.000000
vn -1.000000 0.000000 0.000000
vn -1.000000 0.000000 0.000000
vn -1.000000 0.000000 0.000000
vn -1.000000 0.000000 0.000000
vn -1.000000 0.000000 -0.000000
vn -1.000000 0.000000 -0.000000
vn 0.000000 1.000000 0.000000
vn 0.000000 1.000000 0.000000
vn 0.000000 1.000000 0.000000
vn 0.000000 1.000000 0.000000
vn 0.000000 1.000000 0.000000
vn 0.000000 1.000000 0.000000
vn 0.000000 1.000000 0.000000
vn 0.000000 1.000000 0.000000
vn 0.000000 1.000000 0.000000
vn 0.000000 1.000000 0.000000
vn 0.000000 1.000000 0.000000
vn 0.000000 1.000000 0.000000
vn 0.000000 1.000000 0.000000
vn 0.000000 1.000000 0.000000
vn 0.000000 1.000000 0.000000
vn 0.000000 1.000000 0.000000
vn 0.000000 0.000000 1.000000
vn 0.000000 0.000000 1.000000
vn 0.000000 0.000000 1.000000
vn 0.000000 0.000000 1.000000
vn 1.000000 0.000000 0.000000
vn 1.000000 0.000000 0.000000
vn 1.000000 0.000000 0.000000
vn 1.000000 0.000000 0.000000
vn 0.000000 0.000000 -1.000000
vn 0.000000 0.000000 -1.000000
vn 0.000000 0.000000 -1.000000
vn 0.000000 0.000000 -1.000000
vn -1.000000 0.000000 0.000000
vn -1.000000 0.000000 0.000000
vn -1.000000 0.000000 0.000000
vn -1.000000 0.000000 0.000000
s 1
usemtl blinn1SG
f 1/1/1 2/2/2 3/3/3
f 3/3/3 2/2/2 15/23/4
f 15/23/4 2/2/2 16/24/5
f 2/2/2 4/4/6 16/24/5
s 2
f 3/3/7 15/23/8 11/18/9
f 11/18/9 15/23/8 19/27/10
s 3
f 5/5/11 13/21/12 7/7/13
f 7/7/13 13/21/12 8/8/14
f 13/21/12 14/22/15 8/8/14
f 14/22/15 6/6/16 8/8/14
s 4
f 2/2/17 8/9/18 4/4/19
f 4/4/19 8/9/18 9/14/20
f 9/14/20 8/9/18 10/16/21
f 8/9/18 6/10/22 10/16/21
s 5
f 7/11/23 1/1/24 5/12/25
f 5/12/25 1/1/24 12/19/26
f 12/19/26 1/1/24 11/17/27
f 1/1/24 3/3/28 11/17/27
s 2
f 14/22/29 18/26/30 6/6/31
f 6/6/31 18/26/30 10/15/32
f 9/13/33 17/25/34 4/4/35
f 4/4/35 17/25/34 16/24/36
f 10/15/32 18/26/30 9/13/33
f 9/13/33 18/26/30 17/25/34
f 13/21/37 20/28/38 14/22/29
f 14/22/29 20/28/38 18/26/30
f 17/25/34 19/27/10 16/24/36
f 16/24/36 19/27/10 15/23/8
s 6
f 22/29/39 21/30/40 24/32/41
f 24/32/41 21/30/40 23/31/42
s 2
f 12/20/43 20/28/38 5/5/44
f 5/5/44 20/28/38 13/21/37
f 11/18/9 19/27/10 12/20/43
f 12/20/43 19/27/10 20/28/38
s 7
f 18/26/45 20/28/46 22/29/47
f 22/29/47 20/28/46 21/30/48
s 8
f 20/28/49 19/27/50 21/30/51
f 21/30/51 19/27/50 23/31/52
s 9
f 19/27/53 17/25/54 23/31/55
f 23/31/55 17/25/54 24/32/56
s 10
f 17/25/57 18/26/58 24/32/59
f 24/32/59 18/26/58 22/29/60
